<?xml version="1.0" encoding="utf-8"?>
<svg version="1.1" xmlns:xlink="http://www.w3.org/1999/xlink" width="26px" height="28px" xmlns="http://www.w3.org/2000/svg">
  <g transform="matrix(1 0 0 1 -57 -360 )">
    <path d="M 24.9674479166667 8.56770833333333  C 25.6558159722222 10.2934027777778  26 12.1041666666667  26 14  C 26 15.8958333333333  25.6558159722222 17.7065972222222  24.9674479166667 19.4322916666667  C 24.2790798611111 21.1579861111111  23.3537326388889 22.6467013888889  22.19140625 23.8984375  C 21.0290798611111 25.1501736111111  19.6467013888889 26.1467013888889  18.0442708333333 26.8880208333333  C 16.4418402777778 27.6293402777778  14.7604166666667 28  13 28  C 11.0590277777778 28  9.21397569444444 27.5594618055556  7.46484375 26.6783854166667  C 5.71571180555556 25.7973090277778  4.22612847222222 24.5546875  2.99609375 22.9505208333333  C 2.91710069444444 22.8289930555556  2.88042534722222 22.6922743055556  2.88606770833333 22.5403645833333  C 2.89171006944444 22.3884548611111  2.93967013888889 22.2638888888889  3.02994791666667 22.1666666666667  L 5.34895833333333 19.6510416666667  C 5.46180555555556 19.5416666666667  5.60286458333333 19.4869791666667  5.77213541666667 19.4869791666667  C 5.95269097222222 19.5112847222222  6.08246527777778 19.5842013888889  6.16145833333333 19.7057291666667  C 6.98524305555556 20.8602430555556  7.99522569444444 21.7534722222222  9.19140625 22.3854166666667  C 10.3875868055556 23.0173611111111  11.6571180555556 23.3333333333333  13 23.3333333333333  C 14.1736111111111 23.3333333333333  15.2936197916667 23.0872395833333  16.3600260416667 22.5950520833333  C 17.4264322916667 22.1028645833333  18.3489583333333 21.4375  19.1276041666667 20.5989583333333  C 19.90625 19.7604166666667  20.5240885416667 18.7669270833333  20.9811197916667 17.6184895833333  C 21.4381510416667 16.4700520833333  21.6666666666667 15.2638888888889  21.6666666666667 14  C 21.6666666666667 12.7361111111111  21.4381510416667 11.5299479166667  20.9811197916667 10.3815104166667  C 20.5240885416667 9.23307291666667  19.90625 8.23958333333333  19.1276041666667 7.40104166666667  C 18.3489583333333 6.5625  17.4264322916667 5.89713541666667  16.3600260416667 5.40494791666667  C 15.2936197916667 4.91276041666667  14.1736111111111 4.66666666666667  13 4.66666666666667  C 11.8940972222222 4.66666666666667  10.8333333333333 4.88237847222222  9.81770833333333 5.31380208333333  C 8.80208333333333 5.74522569444444  7.89930555555556 6.36197916666667  7.109375 7.1640625  L 9.42838541666667 9.6796875  C 9.77821180555556 10.0442708333333  9.85720486111111 10.4635416666667  9.66536458333333 10.9375  C 9.47352430555556 11.4236111111111  9.140625 11.6666666666667  8.66666666666667 11.6666666666667  L 1.08333333333333 11.6666666666667  C 0.789930555555556 11.6666666666667  0.536024305555556 11.5512152777778  0.321614583333333 11.3203125  C 0.107204861111111 11.0894097222222  0 10.8159722222222  0 10.5  L 0 2.33333333333333  C 0 1.82291666666667  0.225694444444444 1.46440972222222  0.677083333333333 1.2578125  C 1.1171875 1.05121527777778  1.50651041666667 1.13628472222222  1.84505208333333 1.51302083333333  L 4.04557291666667 3.86458333333333  C 5.25303819444444 2.63715277777778  6.63259548611111 1.68619791666667  8.18424479166667 1.01171875  C 9.73589409722222 0.337239583333334  11.3411458333333 0  13 0  C 14.7604166666667 0  16.4418402777778 0.370659722222222  18.0442708333333 1.11197916666667  C 19.6467013888889 1.85329861111111  21.0290798611111 2.84982638888889  22.19140625 4.1015625  C 23.3537326388889 5.35329861111111  24.2790798611111 6.84201388888889  24.9674479166667 8.56770833333333  Z M 15.0143229166667 8.33072916666667  C 15.1158854166667 8.44010416666667  15.1666666666667 8.57986111111111  15.1666666666667 8.75  L 15.1666666666667 16.9166666666667  C 15.1666666666667 17.0868055555556  15.1158854166667 17.2265625  15.0143229166667 17.3359375  C 14.9127604166667 17.4453125  14.7829861111111 17.5  14.625 17.5  L 9.20833333333333 17.5  C 9.05034722222222 17.5  8.92057291666667 17.4453125  8.81901041666667 17.3359375  C 8.71744791666667 17.2265625  8.66666666666667 17.0868055555556  8.66666666666667 16.9166666666667  L 8.66666666666667 15.75  C 8.66666666666667 15.5798611111111  8.71744791666667 15.4401041666667  8.81901041666667 15.3307291666667  C 8.92057291666667 15.2213541666667  9.05034722222222 15.1666666666667  9.20833333333333 15.1666666666667  L 13 15.1666666666667  L 13 8.75  C 13 8.57986111111111  13.05078125 8.44010416666667  13.15234375 8.33072916666667  C 13.25390625 8.22135416666667  13.3836805555556 8.16666666666667  13.5416666666667 8.16666666666667  L 14.625 8.16666666666667  C 14.7829861111111 8.16666666666667  14.9127604166667 8.22135416666667  15.0143229166667 8.33072916666667  Z " fill-rule="nonzero" fill="#95f204" stroke="none" transform="matrix(1 0 0 1 57 360 )" />
  </g>
</svg>