<?xml version="1.0" encoding="utf-8"?>
<svg version="1.1" xmlns:xlink="http://www.w3.org/1999/xlink" width="13px" height="28px" xmlns="http://www.w3.org/2000/svg">
  <g transform="matrix(1 0 0 1 -64 -429 )">
    <path d="M 12.6140625 23.2869318181818  C 12.8713541666667 23.5388257575758  13 23.8371212121212  13 24.1818181818182  L 13 26.7272727272727  C 13 27.0719696969697  12.8713541666667 27.3702651515151  12.6140625 27.6221590909091  C 12.3567708333333 27.874053030303  12.0520833333333 28  11.7 28  L 1.3 28  C 0.947916666666667 28  0.643229166666667 27.874053030303  0.3859375 27.6221590909091  C 0.128645833333333 27.3702651515151  0 27.0719696969697  0 26.7272727272727  L 0 24.1818181818182  C 0 23.8371212121212  0.128645833333333 23.5388257575758  0.3859375 23.2869318181818  C 0.643229166666667 23.0350378787879  0.947916666666667 22.9090909090909  1.3 22.9090909090909  L 2.6 22.9090909090909  L 2.6 15.2727272727273  L 1.3 15.2727272727273  C 0.947916666666667 15.2727272727273  0.643229166666667 15.1467803030303  0.3859375 14.8948863636364  C 0.128645833333333 14.6429924242424  0 14.344696969697  0 14  L 0 11.4545454545455  C 0 11.1098484848485  0.128645833333333 10.811553030303  0.3859375 10.5596590909091  C 0.643229166666667 10.3077651515151  0.947916666666667 10.1818181818182  1.3 10.1818181818182  L 9.1 10.1818181818182  C 9.45208333333333 10.1818181818182  9.75677083333333 10.3077651515151  10.0140625 10.5596590909091  C 10.2713541666667 10.811553030303  10.4 11.1098484848485  10.4 11.4545454545455  L 10.4 22.9090909090909  L 11.7 22.9090909090909  C 12.0520833333333 22.9090909090909  12.3567708333333 23.0350378787879  12.6140625 23.2869318181818  Z M 10.0140625 0.377840909090911  C 10.2713541666667 0.629734848484845  10.4 0.928030303030301  10.4 1.27272727272727  L 10.4 5.09090909090909  C 10.4 5.43560606060606  10.2713541666667 5.73390151515151  10.0140625 5.98579545454545  C 9.75677083333333 6.23768939393939  9.45208333333333 6.36363636363636  9.1 6.36363636363636  L 3.9 6.36363636363636  C 3.54791666666667 6.36363636363636  3.24322916666667 6.23768939393939  2.9859375 5.98579545454545  C 2.72864583333333 5.73390151515151  2.6 5.43560606060606  2.6 5.09090909090909  L 2.6 1.27272727272727  C 2.6 0.928030303030301  2.72864583333333 0.629734848484845  2.9859375 0.377840909090911  C 3.24322916666667 0.125946969696967  3.54791666666667 0  3.9 0  L 9.1 0  C 9.45208333333333 0  9.75677083333333 0.125946969696967  10.0140625 0.377840909090911  Z " fill-rule="nonzero" fill="#f59a23" stroke="none" transform="matrix(1 0 0 1 64 429 )" />
  </g>
</svg>