<?xml version="1.0" encoding="utf-8"?>
<svg version="1.1" xmlns:xlink="http://www.w3.org/1999/xlink" width="15px" height="16px" xmlns="http://www.w3.org/2000/svg">
  <g transform="matrix(1 0 0 1 -47 -497 )">
    <path d="M 9.75260416666667 0.25  C 9.91753472222222 0.416666666666664  10 0.614035087719296  10 0.842105263157896  L 10 15.1578947368421  C 10 15.3859649122807  9.91753472222222 15.5833333333333  9.75260416666667 15.75  C 9.58767361111111 15.9166666666667  9.39236111111111 16  9.16666666666667 16  C 8.94097222222222 16  8.74565972222222 15.9166666666667  8.58072916666667 15.75  L 4.24479166666667 11.3684210526316  L 0.833333333333333 11.3684210526316  C 0.607638888888889 11.3684210526316  0.412326388888889 11.2850877192982  0.247395833333333 11.1184210526316  C 0.0824652777777778 10.9517543859649  0 10.7543859649123  0 10.5263157894737  L 0 5.47368421052632  C 0 5.24561403508772  0.0824652777777778 5.04824561403509  0.247395833333333 4.88157894736842  C 0.412326388888889 4.71491228070175  0.607638888888889 4.63157894736842  0.833333333333333 4.63157894736842  L 4.24479166666667 4.63157894736842  L 8.58072916666667 0.25  C 8.74565972222222 0.0833333333333321  8.94097222222222 0  9.16666666666667 0  C 9.39236111111111 0  9.58767361111111 0.0833333333333321  9.75260416666667 0.25  Z M 14.4466145833333 6.13157894736842  C 14.8155381944444 6.71052631578947  15 7.33333333333333  15 8  C 15 8.66666666666667  14.8155381944444 9.28728070175439  14.4466145833333 9.86184210526316  C 14.0776909722222 10.4364035087719  13.5894097222222 10.8464912280702  12.9817708333333 11.0921052631579  C 12.8949652777778 11.1359649122807  12.7864583333333 11.1578947368421  12.65625 11.1578947368421  C 12.4305555555556 11.1578947368421  12.2352430555556 11.0767543859649  12.0703125 10.9144736842105  C 11.9053819444444 10.7521929824561  11.8229166666667 10.5526315789474  11.8229166666667 10.3157894736842  C 11.8229166666667 10.1315789473684  11.875 9.97587719298246  11.9791666666667 9.84868421052632  C 12.0833333333333 9.72149122807017  12.2092013888889 9.61184210526316  12.3567708333333 9.51973684210526  C 12.5043402777778 9.42763157894737  12.6519097222222 9.32675438596491  12.7994791666667 9.21710526315789  C 12.9470486111111 9.10745614035088  13.0729166666667 8.94956140350877  13.1770833333333 8.74342105263158  C 13.28125 8.53728070175439  13.3333333333333 8.28947368421053  13.3333333333333 8  C 13.3333333333333 7.71052631578947  13.28125 7.46271929824561  13.1770833333333 7.25657894736842  C 13.0729166666667 7.05043859649123  12.9470486111111 6.89254385964912  12.7994791666667 6.7828947368421  C 12.6519097222222 6.67324561403509  12.5043402777778 6.57236842105263  12.3567708333333 6.48026315789474  C 12.2092013888889 6.38815789473684  12.0833333333333 6.27850877192982  11.9791666666667 6.15131578947368  C 11.875 6.02412280701754  11.8229166666667 5.86842105263158  11.8229166666667 5.68421052631579  C 11.8229166666667 5.44736842105263  11.9053819444444 5.24780701754386  12.0703125 5.08552631578947  C 12.2352430555556 4.92324561403509  12.4305555555556 4.8421052631579  12.65625 4.8421052631579  C 12.7864583333333 4.8421052631579  12.8949652777778 4.8640350877193  12.9817708333333 4.9078947368421  C 13.5894097222222 5.14473684210526  14.0776909722222 5.55263157894737  14.4466145833333 6.13157894736842  Z " fill-rule="nonzero" fill="#aaaaaa" stroke="none" transform="matrix(1 0 0 1 47 497 )" />
  </g>
</svg>