<?xml version="1.0" encoding="utf-8"?>
<svg version="1.1" xmlns:xlink="http://www.w3.org/1999/xlink" width="35px" height="18px" xmlns="http://www.w3.org/2000/svg">
  <g transform="matrix(1 0 0 1 -361 -8 )">
    <path d="M 4 3.6  L 29 3.6  L 29 14.4  L 4 14.4  L 4 3.6  Z M 31.1111111111111 15.75  L 31.1111111111111 11.7  L 33.0555555555556 11.7  L 33.0555555555556 6.3  L 31.1111111111111 6.3  L 31.1111111111111 2.25  C 31.1111111111111 2.11875  31.0655381944444 2.0109375  30.9743923611111 1.9265625  C 30.8832465277778 1.8421875  30.7667824074074 1.8  30.625 2  L 2.43055555555556 2  C 2.28877314814815 1.8  2.17230902777778 1.8421875  2.08116319444444 1.9265625  C 1.99001736111111 2.0109375  1.94444444444444 2.11875  2 2.25  L 2 15.75  C 1.94444444444444 15.88125  1.99001736111111 15.9890625  2.08116319444444 16.0734375  C 2.17230902777778 16.1578125  2.28877314814815 16.2  2.43055555555556 16  L 30.625 16  C 30.7667824074074 16.2  30.8832465277778 16.1578125  30.9743923611111 16.0734375  C 31.0655381944444 15.9890625  31.1111111111111 15.88125  31.1111111111111 15.75  Z M 34.4303385416667 5.02734375  C 34.8101128472222 5.37890625  35 5.803125  35 6.3  L 35 11.7  C 35 12.196875  34.8101128472222 12.62109375  34.4303385416667 12.97265625  C 34.0505642361111 13.32421875  33.5923032407407 13.5  33.0555555555556 13.5  L 33.0555555555556 15.75  C 33.0555555555556 16.36875  32.8175636574074 16.8984375  32.3415798611111 17.3390625  C 31.8655960648148 17.7796875  31.2934027777778 18  30.625 18  L 2.43055555555556 18  C 1.76215277777778 18  1.18995949074074 17.7796875  0.713975694444444 17.3390625  C 0.237991898148148 16.8984375  0 16.36875  0 15.75  L 0 2.25  C 0 1.63125  0.237991898148148 1.1015625  0.713975694444444 0.6609375  C 1.18995949074074 0.220312499999997  1.76215277777778 0  2.43055555555556 0  L 30.625 0  C 31.2934027777778 0  31.8655960648148 0.220312499999997  32.3415798611111 0.6609375  C 32.8175636574074 1.1015625  33.0555555555556 1.63125  33.0555555555556 2.25  L 33.0555555555556 4.5  C 33.5923032407407 4.5  34.0505642361111 4.67578125  34.4303385416667 5.02734375  Z " fill-rule="nonzero" fill="#000000" stroke="none" transform="matrix(1 0 0 1 361 8 )" />
  </g>
</svg>