<?xml version="1.0" encoding="utf-8"?>
<svg version="1.1" xmlns:xlink="http://www.w3.org/1999/xlink" width="22px" height="17px" xmlns="http://www.w3.org/2000/svg">
  <g transform="matrix(1 0 0 1 -107 -21 )">
    <path d="M 3.02622767857143 14.0237926136364  C 3.10398065476191 14.1002604166667  3.14285714285714 14.1908143939394  3.14285714285714 14.2954545454545  L 3.14285714285714 16.6136363636364  C 3.14285714285714 16.7182765151515  3.10398065476191 16.8088304924242  3.02622767857143 16.8852982954545  C 2.94847470238095 16.9617660984848  2.85639880952381 17  2.75 17  L 0.392857142857143 17  C 0.286458333333333 17  0.19438244047619 16.9617660984848  0.116629464285714 16.8852982954545  C 0.0388764880952381 16.8088304924242  0 16.7182765151515  0 16.6136363636364  L 0 14.2954545454545  C 0 14.1908143939394  0.0388764880952381 14.1002604166667  0.116629464285714 14.0237926136364  C 0.19438244047619 13.9473248106061  0.286458333333333 13.9090909090909  0.392857142857143 13.9090909090909  L 2.75 13.9090909090909  C 2.85639880952381 13.9090909090909  2.94847470238095 13.9473248106061  3.02622767857143 14.0237926136364  Z M 3.02622767857143 9.38742897727273  C 3.10398065476191 9.46389678030303  3.14285714285714 9.55445075757576  3.14285714285714 9.65909090909091  L 3.14285714285714 11.9772727272727  C 3.14285714285714 12.0819128787879  3.10398065476191 12.1724668560606  3.02622767857143 12.2489346590909  C 2.94847470238095 12.3254024621212  2.85639880952381 12.3636363636364  2.75 12.3636363636364  L 0.392857142857143 12.3636363636364  C 0.286458333333333 12.3636363636364  0.19438244047619 12.3254024621212  0.116629464285714 12.2489346590909  C 0.0388764880952381 12.1724668560606  0 12.0819128787879  0 11.9772727272727  L 0 9.65909090909091  C 0 9.55445075757576  0.0388764880952381 9.46389678030303  0.116629464285714 9.38742897727273  C 0.19438244047619 9.31096117424242  0.286458333333333 9.27272727272727  0.392857142857143 9.27272727272727  L 2.75 9.27272727272727  C 2.85639880952381 9.27272727272727  2.94847470238095 9.31096117424242  3.02622767857143 9.38742897727273  Z M 3.02622767857143 4.75106534090909  C 3.10398065476191 4.82753314393939  3.14285714285714 4.91808712121212  3.14285714285714 5.02272727272727  L 3.14285714285714 7.34090909090909  C 3.14285714285714 7.44554924242424  3.10398065476191 7.53610321969697  3.02622767857143 7.61257102272727  C 2.94847470238095 7.68903882575758  2.85639880952381 7.72727272727273  2.75 7.72727272727273  L 0.392857142857143 7.72727272727273  C 0.286458333333333 7.72727272727273  0.19438244047619 7.68903882575758  0.116629464285714 7.61257102272727  C 0.0388764880952381 7.53610321969697  0 7.44554924242424  0 7.34090909090909  L 0 5.02272727272727  C 0 4.91808712121212  0.0388764880952381 4.82753314393939  0.116629464285714 4.75106534090909  C 0.19438244047619 4.67459753787879  0.286458333333333 4.63636363636364  0.392857142857143 4.63636363636364  L 2.75 4.63636363636364  C 2.85639880952381 4.63636363636364  2.94847470238095 4.67459753787879  3.02622767857143 4.75106534090909  Z M 21.8833705357143 14.0237926136364  C 21.9611235119048 14.1002604166667  22 14.1908143939394  22 14.2954545454545  L 22 16.6136363636364  C 22 16.7182765151515  21.9611235119048 16.8088304924242  21.8833705357143 16.8852982954545  C 21.8056175595238 16.9617660984848  21.7135416666667 17  21.6071428571429 17  L 5.10714285714286 17  C 5.00074404761905 17  4.90866815476191 16.9617660984848  4.83091517857143 16.8852982954545  C 4.75316220238095 16.8088304924242  4.71428571428571 16.7182765151515  4.71428571428571 16.6136363636364  L 4.71428571428571 14.2954545454545  C 4.71428571428571 14.1908143939394  4.75316220238095 14.1002604166667  4.83091517857143 14.0237926136364  C 4.90866815476191 13.9473248106061  5.00074404761905 13.9090909090909  5.10714285714286 14  L 21.6071428571429 14  C 21.7135416666667 13.9090909090909  21.8056175595238 13.9473248106061  21.8833705357143 14.0237926136364  Z M 3.02622767857143 0.114701704545454  C 3.10398065476191 0.191169507575757  3.14285714285714 0.281723484848483  3.14285714285714 0.386363636363636  L 3.14285714285714 2.70454545454545  C 3.14285714285714 2.8091856060606  3.10398065476191 2.89973958333333  3.02622767857143 2.97620738636364  C 2.94847470238095 3.05267518939394  2.85639880952381 3.09090909090909  2.75 3.09090909090909  L 0.392857142857143 3.09090909090909  C 0.286458333333333 3.09090909090909  0.19438244047619 3.05267518939394  0.116629464285714 2.97620738636364  C 0.0388764880952381 2.89973958333333  0 2.8091856060606  0 2.70454545454545  L 0 0.386363636363636  C 0 0.281723484848483  0.0388764880952381 0.191169507575757  0.116629464285714 0.114701704545454  C 0.19438244047619 0.0382339015151488  0.286458333333333 0  0.392857142857143 0  L 2.75 0  C 2.85639880952381 0  2.94847470238095 0.0382339015151488  3.02622767857143 0.114701704545454  Z M 21.8833705357143 9.38742897727273  C 21.9611235119048 9.46389678030303  22 9.55445075757576  22 9.65909090909091  L 22 11.9772727272727  C 22 12.0819128787879  21.9611235119048 12.1724668560606  21.8833705357143 12.2489346590909  C 21.8056175595238 12.3254024621212  21.7135416666667 12.3636363636364  21.6071428571429 12.3636363636364  L 5.10714285714286 12.3636363636364  C 5.00074404761905 12.3636363636364  4.90866815476191 12.3254024621212  4.83091517857143 12.2489346590909  C 4.75316220238095 12.1724668560606  4.71428571428571 12.0819128787879  4.71428571428571 11.9772727272727  L 4.71428571428571 9.65909090909091  C 4.71428571428571 9.55445075757576  4.75316220238095 9.46389678030303  4.83091517857143 9.38742897727273  C 4.90866815476191 9.31096117424242  5.00074404761905 9.27272727272727  5.10714285714286 9  L 21.6071428571429 9  C 21.7135416666667 9.27272727272727  21.8056175595238 9.31096117424242  21.8833705357143 9.38742897727273  Z M 21.8833705357143 4.75106534090909  C 21.9611235119048 4.82753314393939  22 4.91808712121212  22 5.02272727272727  L 22 7.34090909090909  C 22 7.44554924242424  21.9611235119048 7.53610321969697  21.8833705357143 7.61257102272727  C 21.8056175595238 7.68903882575758  21.7135416666667 7.72727272727273  21.6071428571429 8  L 5.10714285714286 8  C 5.00074404761905 7.72727272727273  4.90866815476191 7.68903882575758  4.83091517857143 7.61257102272727  C 4.75316220238095 7.53610321969697  4.71428571428571 7.44554924242424  4.71428571428571 7.34090909090909  L 4.71428571428571 5.02272727272727  C 4.71428571428571 4.91808712121212  4.75316220238095 4.82753314393939  4.83091517857143 4.75106534090909  C 4.90866815476191 4.67459753787879  5.00074404761905 4.63636363636364  5.10714285714286 4.63636363636364  L 21.6071428571429 4.63636363636364  C 21.7135416666667 4.63636363636364  21.8056175595238 4.67459753787879  21.8833705357143 4.75106534090909  Z M 21.8833705357143 0.114701704545454  C 21.9611235119048 0.191169507575757  22 0.281723484848483  22 0.386363636363636  L 22 2.70454545454545  C 22 2.8091856060606  21.9611235119048 2.89973958333333  21.8833705357143 2.97620738636364  C 21.8056175595238 3.05267518939394  21.7135416666667 3.09090909090909  21.6071428571429 3  L 5.10714285714286 3  C 5.00074404761905 3.09090909090909  4.90866815476191 3.05267518939394  4.83091517857143 2.97620738636364  C 4.75316220238095 2.89973958333333  4.71428571428571 2.8091856060606  4.71428571428571 2.70454545454545  L 4.71428571428571 0.386363636363636  C 4.71428571428571 0.281723484848483  4.75316220238095 0.191169507575757  4.83091517857143 0.114701704545454  C 4.90866815476191 0.0382339015151488  5.00074404761905 0  5.10714285714286 0  L 21.6071428571429 0  C 21.7135416666667 0  21.8056175595238 0.0382339015151488  21.8833705357143 0.114701704545454  Z " fill-rule="nonzero" fill="#000000" stroke="none" transform="matrix(1 0 0 1 107 21 )" />
  </g>
</svg>