<?xml version="1.0" encoding="utf-8"?>
<svg version="1.1" xmlns:xlink="http://www.w3.org/1999/xlink" width="22px" height="21px" xmlns="http://www.w3.org/2000/svg">
  <g transform="matrix(1 0 0 1 -185 -19 )">
    <path d="M 0 11.6817593790427  L 4.46875 8.0006468305304  L 11 12.143596377749  L 6.47836538461539 16.0148771021992  L 0 11.6817593790427  Z M 15.5612980769231 16.843467011643  L 17.5048076923077 15.5394566623545  L 17.5048076923077 17.006468305304  L 11.0264423076923 20.9864165588616  L 11.0264423076923 21  L 11.0132211538462 20.9864165588616  L 11 21  L 11 20.9864165588616  L 4.53485576923077 17.006468305304  L 4.53485576923077 15.5394566623545  L 6.47836538461539 16.843467011643  L 11 12.9857697283312  L 11 12.9586028460543  L 11.0132211538462 12.9721862871928  L 11.0264423076923 12.9586028460543  L 11.0264423076923 12.9857697283312  L 15.5612980769231 16.843467011643  Z M 0 4.33311772315653  L 6.47836538461539 0  L 11 3.87128072445019  L 4.46875 8.0006468305304  L 0 4.33311772315653  Z M 11 12.143596377749  L 17.53125 8.0006468305304  L 22 11.6817593790427  L 15.5348557692308 16.0148771021992  L 11 12.143596377749  Z M 11 3.87128072445019  L 15.5348557692308 0  L 22 4.33311772315653  L 17.53125 8.0006468305304  L 11 3.87128072445019  Z " fill-rule="nonzero" fill="#000000" stroke="none" transform="matrix(1 0 0 1 185 19 )" />
  </g>
</svg>