<?xml version="1.0" encoding="utf-8"?>
<svg version="1.1" xmlns:xlink="http://www.w3.org/1999/xlink" width="22px" height="18px" xmlns="http://www.w3.org/2000/svg">
  <g transform="matrix(1 0 0 1 -263 -20 )">
    <path d="M 7.95913461538461 15.2130681818182  C 8.29407051282051 15.5369318181818  8.46153846153846 15.9204545454545  8.46153846153846 16.3636363636364  C 8.46153846153846 16.8068181818182  8.29407051282051 17.1903409090909  7.95913461538461 17.5142045454545  C 7.62419871794872 17.8380681818182  7.2275641025641 18  6.76923076923077 18  C 6.31089743589744 18  5.91426282051282 17.8380681818182  5.57932692307692 17.5142045454545  C 5.24439102564103 17.1903409090909  5.07692307692308 16.8068181818182  5.07692307692308 16.3636363636364  C 5.07692307692308 15.9204545454545  5.24439102564103 15.5369318181818  5.57932692307692 15.2130681818182  C 5.91426282051282 14.8892045454545  6.31089743589744 14.7272727272727  6.76923076923077 14.7272727272727  C 7.2275641025641 14.7272727272727  7.62419871794872 14.8892045454545  7.95913461538461 15.2130681818182  Z M 19.8052884615385 15.2130681818182  C 20.1402243589744 15.5369318181818  20.3076923076923 15.9204545454545  20.3076923076923 16.3636363636364  C 20.3076923076923 16.8068181818182  20.1402243589744 17.1903409090909  19.8052884615385 17.5142045454545  C 19.4703525641026 17.8380681818182  19.0737179487179 18  18.6153846153846 18  C 18.1570512820513 18  17.7604166666667 17.8380681818182  17.4254807692308 17.5142045454545  C 17.0905448717949 17.1903409090909  16.9230769230769 16.8068181818182  16.9230769230769 16.3636363636364  C 16.9230769230769 15.9204545454545  17.0905448717949 15.5369318181818  17.4254807692308 15.2130681818182  C 17.7604166666667 14.8892045454545  18.1570512820513 14.7272727272727  18.6153846153846 14.7272727272727  C 19.0737179487179 14.7272727272727  19.4703525641026 14.8892045454545  19.8052884615385 15.2130681818182  Z M 21.7487980769231 1.87926136363636  C 21.916266025641 2.04119318181818  22 2.23295454545454  22 2.45454545454545  L 22 9  C 22 9.20454545454546  21.9272836538462 9.38565340909091  21.7818509615385 9.54332386363637  C 21.6364182692308 9.70099431818182  21.4579326923077 9.79261363636363  21.2463942307692 9.81818181818182  L 7.44350961538461 11.3778409090909  C 7.55809294871795 11.8892045454545  7.61538461538461 12.1875  7.61538461538461 12.2727272727273  C 7.61538461538461 12.4090909090909  7.50961538461539 12.6818181818182  7.29807692307692 13  L 19.4615384615385 13  C 19.6907051282051 13.0909090909091  19.8890224358974 13.171875  20.0564903846154 13.3338068181818  C 20.2239583333333 13.4957386363636  20.3076923076923 13.6875  20.3076923076923 13.9090909090909  C 20.3076923076923 14.1306818181818  20.2239583333333 14.3224431818182  20.0564903846154 14.484375  C 19.8890224358974 14.6463068181818  19.6907051282051 14.7272727272727  19.4615384615385 14.7272727272727  L 5.92307692307692 14.7272727272727  C 5.69391025641026 14.7272727272727  5.49559294871795 14.6463068181818  5.328125 14.484375  C 5.16065705128205 14.3224431818182  5.07692307692308 14.1306818181818  5.07692307692308 13.9090909090909  C 5.07692307692308 13.8153409090909  5.11217948717949 13.6811079545455  5.18269230769231 13.5063920454545  C 5.25320512820513 13.3316761363636  5.32371794871795 13.1782670454545  5.39423076923077 13.0461647727273  C 5.46474358974359 12.9140625  5.55949519230769 12.7436079545455  5.67848557692308 12.5348011363636  C 5.79747596153846 12.3259943181818  5.86578525641026 12.2002840909091  5.88341346153846 12.1576704545455  L 3.54326923076923 1.63636363636364  L 0.846153846153846 1.63636363636364  C 0.61698717948718 1.63636363636364  0.418669871794872 1.55539772727273  0.251201923076923 1.39346590909091  C 0.0837339743589744 1.23153409090909  0 1.03977272727273  0 0.818181818181817  C 0 0.596590909090908  0.0837339743589744 0.404829545454543  0.251201923076923 0.242897727272728  C 0.418669871794872 0.0809659090909074  0.61698717948718 0  0.846153846153846 0  L 4.23076923076923 0  C 4.37179487179487 0  4.49739583333333 0.0276988636363624  4.60757211538461 0.0830965909090913  C 4.7177483974359 0.138494318181818  4.8036858974359 0.204545454545454  4.86538461538461 0.28125  C 4.92708333333333 0.357954545454546  4.984375 0.462357954545452  5.03725961538461 0.594460227272728  C 5.09014423076923 0.726562499999999  5.12540064102564 0.837357954545454  5.14302884615385 0.926846590909091  C 5.16065705128205 1.01633522727273  5.18489583333333 1.14204545454545  5.21574519230769 1.30397727272727  C 5.24659455128205 1.46590909090909  5.26642628205128 1.57670454545454  5.27524038461539 1.63636363636364  L 21.1538461538462 1.63636363636364  C 21.3830128205128 1.63636363636364  21.5813301282051 1.71732954545454  21.7487980769231 1.87926136363636  Z " fill-rule="nonzero" fill="#000000" stroke="none" transform="matrix(1 0 0 1 263 20 )" />
  </g>
</svg>