<?xml version="1.0" encoding="utf-8"?>
<svg version="1.1" xmlns:xlink="http://www.w3.org/1999/xlink" width="22px" height="22px" xmlns="http://www.w3.org/2000/svg">
  <g transform="matrix(1 0 0 1 -341 -18 )">
    <path d="M 14.5377604166667 18.2044270833333  C 14.6236979166667 18.1184895833333  14.6666666666667 18.0086805555556  14.6666666666667 17.875  L 14.6666666666667 15.5833333333333  C 14.6666666666667 15.4496527777778  14.6236979166667 15.33984375  14.5377604166667 15.25390625  C 14.4518229166667 15.16796875  14.3420138888889 15.125  14.2083333333333 15.125  L 12.8333333333333 15.125  L 12.8333333333333 7.79166666666667  C 12.8333333333333 7.65798611111111  12.7903645833333 7.54817708333333  12.7044270833333 7.46223958333333  C 12.6184895833333 7.37630208333333  12.5086805555556 7.33333333333333  12.375 7.33333333333333  L 7.79166666666667 7.33333333333333  C 7.65798611111111 7.33333333333333  7.54817708333333 7.37630208333333  7.46223958333333 7.46223958333333  C 7.37630208333333 7.54817708333333  7.33333333333333 7.65798611111111  7.33333333333333 7.79166666666667  L 7.33333333333333 10.0833333333333  C 7.33333333333333 10.2170138888889  7.37630208333333 10.3268229166667  7.46223958333333 10.4127604166667  C 7.54817708333333 10.4986979166667  7.65798611111111 10.5416666666667  7.79166666666667 10.5416666666667  L 9.16666666666667 10.5416666666667  L 9.16666666666667 15.125  L 7.79166666666667 15.125  C 7.65798611111111 15.125  7.54817708333333 15.16796875  7.46223958333333 15.25390625  C 7.37630208333333 15.33984375  7.33333333333333 15.4496527777778  7.33333333333333 15.5833333333333  L 7.33333333333333 17.875  C 7.33333333333333 18.0086805555556  7.37630208333333 18.1184895833333  7.46223958333333 18.2044270833333  C 7.54817708333333 18.2903645833333  7.65798611111111 18.3333333333333  7.79166666666667 18.3333333333333  L 14.2083333333333 18.3333333333333  C 14.3420138888889 18.3333333333333  14.4518229166667 18.2903645833333  14.5377604166667 18.2044270833333  Z M 12.7044270833333 5.37109375  C 12.7903645833333 5.28515625  12.8333333333333 5.17534722222222  12.8333333333333 5.04166666666667  L 12.8333333333333 2.75  C 12.8333333333333 2.61631944444444  12.7903645833333 2.50651041666667  12.7044270833333 2.42057291666667  C 12.6184895833333 2.33463541666667  12.5086805555556 2.29166666666667  12.375 2.29166666666667  L 9.625 2.29166666666667  C 9.49131944444445 2.29166666666667  9.38151041666667 2.33463541666667  9.29557291666667 2.42057291666667  C 9.20963541666667 2.50651041666667  9.16666666666667 2.61631944444444  9.16666666666667 2.75  L 9.16666666666667 5.04166666666667  C 9.16666666666667 5.17534722222222  9.20963541666667 5.28515625  9.29557291666667 5.37109375  C 9.38151041666667 5.45703125  9.49131944444445 5.5  9.625 5.5  L 12.375 5.5  C 12.5086805555556 5.5  12.6184895833333 5.45703125  12.7044270833333 5.37109375  Z M 20.5247395833333 5.478515625  C 21.5082465277778 7.16384548611111  22 9.00434027777778  22 11  C 22 12.9956597222222  21.5082465277778 14.8361545138889  20.5247395833333 16.521484375  C 19.5412326388889 18.2068142361111  18.2068142361111 19.5412326388889  16.521484375 20.5247395833333  C 14.8361545138889 21.5082465277778  12.9956597222222 22  11 22  C 9.00434027777778 22  7.16384548611111 21.5082465277778  5.478515625 20.5247395833333  C 3.79318576388889 19.5412326388889  2.45876736111111 18.2068142361111  1.47526041666667 16.521484375  C 0.491753472222222 14.8361545138889  0 12.9956597222222  0 11  C 0 9.00434027777778  0.491753472222222 7.16384548611111  1.47526041666667 5.478515625  C 2.45876736111111 3.79318576388889  3.79318576388889 2.45876736111111  5.478515625 1.47526041666667  C 7.16384548611111 0.49175347222222  9.00434027777778 0  11 0  C 12.9956597222222 0  14.8361545138889 0.49175347222222  16.521484375 1.47526041666667  C 18.2068142361111 2.45876736111111  19.5412326388889 3.79318576388889  20.5247395833333 5.478515625  Z " fill-rule="nonzero" fill="#000000" stroke="none" transform="matrix(1 0 0 1 341 18 )" />
  </g>
</svg>